<svg xmlns="http://www.w3.org/2000/svg" width="1200" height="360" viewBox="0 0 1200 360">
  <rect width="1200" height="360" fill="#232323"/>
  <rect x="30" y="36" width="1140" height="288" rx="24" fill="#fff"/>

  <!-- Reference-matched information hierarchy -->
  <text x="45" y="111" fill="#000" font-family="Arial,sans-serif" font-size="90" font-weight="900">GARGANACL #147</text>
  <text x="45" y="165" fill="#000" font-family="Arial,sans-serif" font-size="57" font-weight="800">Pokemon Mega Evolution</text>
  <text x="45" y="204" fill="#000" font-family="Arial,sans-serif" font-size="42" font-weight="700">LOOSE</text>
  <text x="45" y="273" fill="#000" font-family="Arial,sans-serif" font-size="96" font-weight="900">$1.99</text>

  <!-- Code 128-style barcode zone -->
  <g fill="#000">
    <rect x="45" y="276" width="6" height="30"/><rect x="57" y="276" width="3" height="30"/>
    <rect x="69" y="276" width="9" height="30"/><rect x="87" y="276" width="3" height="30"/>
    <rect x="96" y="276" width="6" height="30"/><rect x="111" y="276" width="6" height="30"/>
    <rect x="123" y="276" width="3" height="30"/><rect x="132" y="276" width="9" height="30"/>
    <rect x="147" y="276" width="6" height="30"/><rect x="162" y="276" width="3" height="30"/>
    <rect x="171" y="276" width="3" height="30"/><rect x="180" y="276" width="9" height="30"/>
    <rect x="195" y="276" width="3" height="30"/><rect x="207" y="276" width="6" height="30"/>
    <rect x="219" y="276" width="9" height="30"/><rect x="234" y="276" width="3" height="30"/>
    <rect x="246" y="276" width="6" height="30"/><rect x="261" y="276" width="3" height="30"/>
    <rect x="270" y="276" width="9" height="30"/><rect x="285" y="276" width="6" height="30"/>
    <rect x="297" y="276" width="3" height="30"/><rect x="309" y="276" width="9" height="30"/>
    <rect x="324" y="276" width="3" height="30"/><rect x="333" y="276" width="6" height="30"/>
    <rect x="348" y="276" width="9" height="30"/><rect x="363" y="276" width="3" height="30"/>
    <rect x="375" y="276" width="6" height="30"/><rect x="387" y="276" width="3" height="30"/>
    <rect x="399" y="276" width="9" height="30"/><rect x="414" y="276" width="6" height="30"/>
  </g>
  <text x="792" y="267" fill="#000" font-family="Arial,sans-serif" font-size="24">figureheadz.com</text>
  <text x="792" y="294" fill="#000" font-family="Arial,sans-serif" font-size="21">Generated: 9/7/2026</text>
  <text x="45" y="321" fill="#000" font-family="monospace" font-size="18" letter-spacing="8">10616247</text>

  <text x="30" y="350" fill="#bbb" font-family="Arial,sans-serif" font-size="16">
    Enlarged 3× preview · physical label: approximately 50 mm × 12 mm · 400 × 96 thermal dots
  </text>
</svg>